<?xml version="1.0" standalone="no"?><!DOCTYPE svg PUBLIC "-//W3C//DTD SVG 1.1//EN" "http://www.w3.org/Graphics/SVG/1.1/DTD/svg11.dtd"><svg t="1641958785118" class="icon" viewBox="0 0 1024 1024" version="1.1" xmlns="http://www.w3.org/2000/svg" p-id="1425" xmlns:xlink="http://www.w3.org/1999/xlink" width="200" height="200"><defs><style type="text/css"></style></defs><path d="M280.185176 226.073893C119.006453 282.968905 82.066942 421.845142 130.790362 559.880546c48.727502 138.027241 210.551135 257.539827 341.786403 211.212373 30.249582-10.677764 56.229692-29.233236 77.711753-53.160243" fill="#70CBE0" p-id="1426"></path><path d="M310.247 197.208012C164.191027 248.764142 130.720973 374.611548 174.868791 499.691591c44.155982 125.075962 190.795639 233.371998 309.716377 191.39157 27.404628-9.673662 50.947954-26.486242 70.41773-48.172389" fill="#99EBFF" p-id="1427"></path><path d="M412.453118 811.820261c-131.288331 0.008163-265.735908-114.859432-310.532719-241.747675-27.771982-78.679119-29.025068-154.321443-3.628644-218.747217 28.012803-71.062641 87.385415-124.353499 171.701381-154.117357l20.379998 57.735845c-130.712809 46.139695-179.579089 156.325565-130.716891 294.748731 36.498687 103.389816 147.978459 201.03666 251.907061 201.048905 17.281977 0.004082 34.335378-2.693931 50.821421-8.514456 24.237218-8.559354 46.147858-23.608634 65.119666-44.743749l45.560091 40.898775c-25.902557 28.853636-56.282754 49.572417-90.299759 61.580819-22.963723 8.106284-46.592765 11.857379-70.311605 11.857379z" fill="#6E6E96" p-id="1428"></path><path d="M509.977511 714.891799c25.71888 29.669979 57.666455 51.613274 94.977403 61.095095 128.349497 32.633303 271.470716-94.520251 305.797931-229.531105 24.988253-98.291755-8.616498-197.048825-78.270948-256.0949" fill="#FF9999" p-id="1429"></path><path d="M646.519007 811.750872a198.779472 198.779472 0 0 1-49.103019-6.098081c-41.339599-10.506332-79.573014-34.955799-110.565469-70.707531l46.258065-40.106922c23.094338 26.637266 49.805074 43.96006 79.389337 51.478577 91.871219 23.343322 232.11483-63.96454 268.589027-207.404134 21.245321-83.573094-5.600112-171.966693-68.397282-225.200406l39.588544-46.702972c80.51589 68.254422 115.112498 180.905646 88.144614 286.989393-33.290459 130.92914-161.990984 257.752076-293.903817 257.752076z" fill="#6E6E96" p-id="1430"></path><path d="M255.184678 355.705048c0 169.60338 130.716891 362.586818 291.965002 362.586818s291.969084-192.983438 291.969084-362.586818c0-169.60338-130.725054-307.087753-291.969084-307.087753-198.048845-0.004082-291.965002 137.484373-291.965002 307.087753z" fill="#FFC471" p-id="1431"></path><path d="M266.62164 304.577499c0 141.366083 108.953192 302.218268 243.355871 302.218268s243.35587-160.852185 243.35587-302.218268-108.957274-255.960203-243.35587-255.960204C344.904833 48.613214 266.62164 163.211416 266.62164 304.577499z" fill="#FFE071" p-id="1432"></path><path d="M547.145598 748.904721c-181.668927 0-322.577857-211.367478-322.577857-393.199673 0-95.483536 27.388301-177.50966 79.209742-237.212891C360.839845 52.74799 444.996624 18.000359 547.145598 18.000359c177.872933 0 322.581939 151.492815 322.58194 337.700608 0.004082 181.832195-140.908931 393.203755-322.58194 393.203754z m0-669.678652c-85.079247 0-151.403017 26.710736-197.130459 79.397501-42.013082 48.405046-64.217606 116.553343-64.217606 197.081478 0 150.36218 116.581915 331.973963 261.352147 331.973963 144.774314 0 261.356229-181.611783 261.356229-331.973963 0-152.452018-117.247235-276.47898-261.360311-276.478979z" fill="#6E6E96" p-id="1433"></path><path d="M539.145439 1005.269014a30.612855 30.612855 0 0 1-26.898495-45.180492l104.855151-193.820189a30.616937 30.616937 0 0 1 41.490622-12.35943 30.612855 30.612855 0 0 1 12.35943 41.490623l-104.85515 193.820189a30.60061 30.60061 0 0 1-26.951558 16.049299z" fill="#6E6E96" p-id="1434"></path><path d="M527.557453 1005.273096a30.6251 30.6251 0 0 1-28.19648-18.673841l-83.446561-196.848822a30.612855 30.612855 0 1 1 56.372552-23.890272l83.446561 196.848822a30.612855 30.612855 0 0 1-28.176072 42.564113z" fill="#6E6E96" p-id="1435"></path><path d="M539.178093 1005.264933h-0.130615a30.612855 30.612855 0 0 1-30.486322-30.739388l0.97553-237.347588a30.612855 30.612855 0 0 1 30.608773-30.486322h0.130615a30.621018 30.621018 0 0 1 30.486322 30.739388l-0.97553 237.347588a30.612855 30.612855 0 0 1-30.608773 30.486322z" fill="#6E6E96" p-id="1436"></path><path d="M392.399657 414.771532a30.6251 30.6251 0 0 1-29.543446-22.66984c-28.980169-107.749086 35.110904-218.988038 142.85999-247.968207a30.612855 30.612855 0 1 1 15.898276 59.123627c-75.148436 20.212648-119.847286 97.789704-99.634638 172.942222a30.612855 30.612855 0 0 1-21.612676 37.510952 30.531221 30.531221 0 0 1-7.967506 1.061246z" fill="#FFFFFF" p-id="1437"></path></svg>